<svg width="96" height="39" viewBox="0 0 96 39" fill="none" xmlns="http://www.w3.org/2000/svg">
<path d="M26.7148 38V12.2383H36.0312V9.81641H14.7422V12.2383H24.0391V38H26.7148ZM42.2422 38.332C47.7695 38.332 51.5 34.2891 51.5 27.8438C51.5 21.3789 47.7695 17.3555 42.2422 17.3555C36.7344 17.3555 32.9844 21.3789 32.9844 27.8438C32.9844 34.2891 36.7148 38.332 42.2422 38.332ZM42.2422 36.0469C38.2578 36.0469 35.6211 33 35.6211 27.8438C35.6211 22.6875 38.2578 19.6406 42.2422 19.6406C46.2266 19.6406 48.8828 22.6875 48.8828 27.8438C48.8828 33 46.2266 36.0469 42.2422 36.0469ZM62.6133 38.332C65.8945 38.332 68.4922 36.4375 69.6445 33.7031H69.7031V38H72.1641V9.81641H69.5664V21.8672H69.5078C68.4336 19.2305 65.8359 17.3555 62.5547 17.3555C57.457 17.3555 53.9219 21.5156 53.9219 27.8438C53.9219 34.1523 57.4766 38.332 62.6133 38.332ZM63.0625 19.6406C66.9297 19.6406 69.5859 22.9414 69.5859 27.8438C69.5859 32.7656 66.9297 36.0469 63.0625 36.0469C59.1562 36.0469 56.5781 32.8047 56.5781 27.8438C56.5781 22.8828 59.1562 19.6406 63.0625 19.6406ZM85.0547 38.332C90.582 38.332 94.3125 34.2891 94.3125 27.8438C94.3125 21.3789 90.582 17.3555 85.0547 17.3555C79.5469 17.3555 75.7969 21.3789 75.7969 27.8438C75.7969 34.2891 79.5273 38.332 85.0547 38.332ZM85.0547 36.0469C81.0703 36.0469 78.4336 33 78.4336 27.8438C78.4336 22.6875 81.0703 19.6406 85.0547 19.6406C89.0391 19.6406 91.6953 22.6875 91.6953 27.8438C91.6953 33 89.0391 36.0469 85.0547 36.0469Z" fill="white"/>
<path d="M8.36079 10.3413C8.35547 9.35812 8.79649 8.61602 9.68916 8.06949C9.18969 7.34882 8.43518 6.95232 7.43889 6.87463C6.49575 6.79962 5.46493 7.4292 5.08767 7.4292C4.68916 7.4292 3.77524 6.90142 3.05792 6.90142C1.57545 6.92553 0 8.0936 0 10.4699C0 11.1718 0.127524 11.897 0.382572 12.6453C0.722635 13.6285 1.95005 16.0397 3.23061 15.9995C3.90011 15.9834 4.37301 15.52 5.24442 15.52C6.08927 15.52 6.52763 15.9995 7.27418 15.9995C8.56536 15.9808 9.67588 13.7893 10 12.8034C8.2678 11.9809 8.36079 10.3922 8.36079 10.3413V10.3413ZM6.85707 5.94232C7.58236 5.0743 7.51594 4.28398 7.49469 4C6.85441 4.03751 6.11318 4.43937 5.69075 4.93499C5.22582 5.46545 4.95218 6.12181 5.01063 6.86123C5.70404 6.91482 6.33634 6.55582 6.85707 5.94232V5.94232Z" fill="white"/>
<path d="M5 20V38" stroke="white" stroke-width="2.5"/>
</svg>
